<?xml version="1.0" encoding="UTF-8"?>
<svg id="Layer_1" data-name="Layer 1" xmlns="http://www.w3.org/2000/svg" viewBox="0 0 2220 1080">
  <defs>
    <style>
      .cls-1 {
        fill: #0b1537;
      }

      .cls-2 {
        fill: #76bfbb;
      }

      .cls-3 {
        fill: #165dfc;
      }
    </style>
  </defs>
  <g>
    <path class="cls-1" d="M319.64,258.5v191.42l-67.37,40.73-45.17,27.32v-159.96l-77.43,46.81v270.38l21.37,12.91,56.06,33.89v-72.58l30.09-18.19,15.08-9.12,67.37-40.73v240.11c0,37.06-34.13,62.11-67.37,55.44-5.08-1.01-10.16-2.79-15.08-5.36-1.06-.56-2.11-1.15-3.17-1.79l-94.3-57.01-15.08-9.12-80.28-48.54c-16.91-10.21-27.25-28.53-27.25-48.3v-333.66c0-19.77,10.34-38.08,27.25-48.3l189.66-114.66c37.61-22.73,85.62,4.35,85.62,48.28Z"/>
    <path class="cls-3" d="M662.91,373.17v333.66c0,19.77-10.33,38.08-27.24,48.3l-80.88,48.9-15.08,9.12-93.7,56.64c-1.25.76-2.5,1.45-3.77,2.1-4.94,2.52-10,4.22-15.08,5.16-33.06,6.26-66.78-18.73-66.78-55.56v-239.74l66.78,40.36,15.08,9.12,30.68,18.56v72.21l55.66-33.64,21.78-13.17v-270.38l-77.43-46.81v160.31l-45.77-27.67-66.78-40.38v-191.77c0-43.94,48.03-71.02,85.64-48.28l189.66,114.66c16.91,10.21,27.24,28.53,27.24,48.3Z"/>
    <path class="cls-2" d="M472.93,590.54v27.79l-30.68-18.56-81.87-49.48-20.67-12.49-20.08,12.14-82.46,49.83-30.09,18.19v-27.78c0-11.57,6.05-22.3,15.95-28.28l14.14-8.55,6.46-3.9,8.62-5.22,41.16-24.89,26.21-15.84,20.08-12.13,20.67,12.49,25.62,15.48,41.16,24.89,8.62,5.22,6.46,3.9,14.74,8.91c9.9,5.99,15.95,16.71,15.95,28.28Z"/>
  </g>
  <g>
    <path class="cls-1" d="M801.97,715.82c-17.41-19.87-26.11-47.81-26.11-83.8v-192.01c0-34.74,8.7-60.95,26.11-78.64,17.41-17.68,42.87-26.53,76.41-26.53s59,8.85,76.41,26.53c17.41,17.69,26.11,43.9,26.11,78.64v192.01c0,36.31-8.7,64.32-26.11,84.04-17.41,19.72-42.88,29.58-76.41,29.58s-59-9.93-76.41-29.81ZM893.37,662.06c2.58-6.26,3.87-15.02,3.87-26.29v-197.18c0-8.76-1.21-15.88-3.63-21.36-2.42-5.47-7.34-8.22-14.75-8.22-13.86,0-20.79,10.17-20.79,30.52v196.71c0,11.58,1.45,20.35,4.35,26.29,2.9,5.95,8.22,8.92,15.96,8.92s12.41-3.12,14.99-9.39Z"/>
    <path class="cls-1" d="M1035.78,731.31c-10.48-9.54-17.41-22.22-20.8-38.03-3.38-15.8-5.08-36.07-5.08-60.8l.97-154.93c0-24.41,6.36-44.37,19.1-59.86,12.73-15.49,30.71-23.24,53.92-23.24s39.97,7.36,51.26,22.07v-80.28h84.63v405.63h-84.63v-36.62c-4.84,13.46-11.36,23.55-19.59,30.28-8.22,6.73-19.27,10.09-33.12,10.09-20.63,0-36.19-4.77-46.66-14.32ZM1131.29,669.34c2.58-7.98,3.87-18.7,3.87-32.16v-143.66c0-10.01-1.45-18.46-4.35-25.35-2.9-6.88-8.06-10.33-15.48-10.33-8.39,0-13.95,3.21-16.68,9.62-2.74,6.42-4.11,15.1-4.11,26.06v144.6c0,28.8,6.77,43.19,20.31,43.19,8.38,0,13.86-3.99,16.44-11.97Z"/>
    <path class="cls-1" d="M1276.6,731.31c-10.48-9.54-17.41-22.22-20.79-38.03-3.39-15.8-5.08-36.07-5.08-60.8l.97-154.93c0-24.41,6.36-44.37,19.1-59.86,12.73-15.49,30.71-23.24,53.92-23.24s39.97,7.36,51.26,22.07v-80.28h84.63v405.63h-84.63v-36.62c-4.84,13.46-11.36,23.55-19.59,30.28-8.22,6.73-19.27,10.09-33.12,10.09-20.64,0-36.19-4.77-46.67-14.32ZM1372.11,669.34c2.58-7.98,3.87-18.7,3.87-32.16v-143.66c0-10.01-1.45-18.46-4.35-25.35-2.9-6.88-8.06-10.33-15.48-10.33-8.39,0-13.95,3.21-16.68,9.62-2.74,6.42-4.11,15.1-4.11,26.06v144.6c0,28.8,6.77,43.19,20.31,43.19,8.38,0,13.86-3.99,16.44-11.97Z"/>
    <path class="cls-1" d="M1486.71,642.35l.48-27.23h84.63l.48,40.37c0,8.14,1.61,14.32,4.84,18.55,3.22,4.22,8.54,6.34,15.96,6.34,11.28,0,16.93-8.92,16.93-26.76,0-13.14-2.66-23.47-7.98-30.98-5.32-7.51-13.78-15.49-25.39-23.94l-44.97-33.8c-15.47-11.58-26.6-23.55-33.37-35.92-6.77-12.36-10.16-29.81-10.16-52.35,0-17.53,4.75-32.47,14.27-44.83,9.51-12.36,22.16-21.67,37.96-27.93,15.79-6.26,33.37-9.39,52.71-9.39,68.67,0,103,33.18,103,99.53v6.57h-87.53v-13.15c0-8.14-1.38-15.1-4.11-20.89-2.74-5.79-7.34-8.69-13.78-8.69-5.8,0-10.24,1.64-13.3,4.93-3.07,3.29-4.59,7.74-4.59,13.38,0,12.52,4.99,22.23,14.99,29.11l52.23,37.09c18.69,13.46,33.04,28.1,43.04,43.9,9.99,15.81,14.99,35.76,14.99,59.86,0,31.92-9.35,56.5-28.05,73.71-18.7,17.22-44.81,25.82-78.34,25.82-69.96,0-104.94-34.42-104.94-103.28Z"/>
    <path class="cls-3" d="M1748.33,715.82c-17.41-19.87-26.11-47.81-26.11-83.8v-192.01c0-34.74,8.7-60.95,26.11-78.64,17.41-17.68,42.87-26.53,76.41-26.53s59,8.85,76.41,26.53c17.41,17.69,26.11,43.9,26.11,78.64v192.01c0,36.31-8.7,64.32-26.11,84.04-17.41,19.72-42.88,29.58-76.41,29.58s-59-9.93-76.41-29.81ZM1839.73,662.06c2.58-6.26,3.87-15.02,3.87-26.29v-197.18c0-8.76-1.21-15.88-3.63-21.36-2.42-5.47-7.34-8.22-14.75-8.22-13.87,0-20.79,10.17-20.79,30.52v196.71c0,11.58,1.45,20.35,4.35,26.29,2.9,5.95,8.22,8.92,15.96,8.92s12.41-3.12,14.99-9.39Z"/>
    <path class="cls-3" d="M1966.9,475.68h-14.99l.48-62.44h14.51v-23.47c0-36.93,19.02-55.4,57.06-55.4,18.05,0,32.56,2.19,43.52,6.57v50.7c-3.23-.94-5.8-1.41-7.74-1.41-4.52,0-7.42,1.57-8.7,4.69-1.29,3.13-1.93,7.83-1.93,14.08v4.22h18.38v63.38h-16.44v265.25h-84.14v-266.19ZM2102.31,475.68h-14.99l.48-62.44h14.51v-23.47c0-36.93,19.02-55.4,57.06-55.4,18.05,0,32.56,2.19,43.52,6.57v50.7c-3.23-.94-5.8-1.41-7.74-1.41-4.52,0-7.42,1.57-8.71,4.69-1.29,3.13-1.93,7.83-1.93,14.08v4.22h18.38v63.38h-16.44v265.25h-84.14v-266.19Z"/>
  </g>
</svg>