<?xml version="1.0" encoding="UTF-8"?>
<svg id="Layer_1" data-name="Layer 1" xmlns="http://www.w3.org/2000/svg" viewBox="0 0 1080 1080">
  <defs>
    <style>
      .cls-1 {
        fill: #0b1537;
      }

      .cls-2 {
        fill: #76bfbb;
      }

      .cls-3 {
        fill: #165dfc;
      }
    </style>
  </defs>
  <g>
    <path class="cls-1" d="M516.76,67.89v218.4l-76.87,46.47-51.54,31.17v-182.51l-88.35,53.4v308.49l24.38,14.74,63.97,38.67v-82.81l34.33-20.75,17.21-10.4,76.87-46.47v273.95c0,42.28-38.94,70.87-76.87,63.26-5.79-1.16-11.59-3.18-17.21-6.12-1.2-.64-2.41-1.32-3.61-2.04l-107.59-65.04-17.21-10.4-91.59-55.38c-19.29-11.65-31.09-32.55-31.09-55.1V198.73c0-22.55,11.8-43.45,31.09-55.1L419.07,12.81c42.91-25.94,97.69,4.96,97.69,55.09Z"/>
    <path class="cls-3" d="M908.41,198.73v380.69c0,22.55-11.78,43.45-31.08,55.1l-92.28,55.8-17.21,10.4-106.9,64.62c-1.43.87-2.86,1.65-4.3,2.39-5.63,2.87-11.41,4.82-17.21,5.89-37.72,7.14-76.2-21.36-76.2-63.39v-273.53l76.2,46.05,17.21,10.4,35.01,21.17v82.39l63.5-38.38,24.85-15.02V234.83l-88.35-53.4v182.91l-52.22-31.57-76.2-46.07V67.89c0-50.13,54.8-81.03,97.71-55.09l216.39,130.82c19.29,11.65,31.08,32.55,31.08,55.1Z"/>
    <path class="cls-2" d="M691.65,446.74v31.71l-35.01-21.17-93.4-56.45-23.58-14.25-22.91,13.85-94.08,56.85-34.33,20.75v-31.7c0-13.2,6.9-25.44,18.2-32.27l16.13-9.75,7.37-4.45,9.84-5.96,46.97-28.4,29.9-18.07,22.91-13.84,23.58,14.25,29.23,17.66,46.97,28.4,9.84,5.96,7.37,4.45,16.81,10.17c11.29,6.83,18.2,19.07,18.2,32.27Z"/>
  </g>
  <g>
    <path class="cls-1" d="M192.55,985.73c-8.83-10.08-13.25-24.25-13.25-42.51v-97.4c0-17.62,4.42-30.92,13.25-39.89,8.83-8.97,21.75-13.45,38.76-13.45s29.93,4.49,38.76,13.45c8.83,8.97,13.25,22.27,13.25,39.89v97.4c0,18.42-4.42,32.62-13.25,42.62-8.83,10-21.75,15-38.76,15s-29.93-5.04-38.76-15.12ZM238.91,958.47c1.31-3.17,1.96-7.62,1.96-13.33v-100.01c0-4.44-.61-8.06-1.84-10.83-1.23-2.78-3.72-4.17-7.48-4.17-7.03,0-10.55,5.16-10.55,15.48v99.78c0,5.88.74,10.32,2.21,13.33,1.47,3.02,4.17,4.52,8.09,4.52s6.29-1.58,7.6-4.76Z"/>
    <path class="cls-1" d="M311.14,993.59c-5.32-4.84-8.83-11.27-10.55-19.29-1.72-8.01-2.58-18.29-2.58-30.84l.49-78.58c0-12.38,3.23-22.5,9.69-30.36,6.46-7.86,15.58-11.79,27.35-11.79s20.27,3.73,26,11.19v-40.72h42.93v205.75h-42.93v-18.57c-2.45,6.83-5.76,11.95-9.93,15.36s-9.77,5.12-16.8,5.12c-10.47,0-18.36-2.42-23.67-7.26ZM359.59,962.16c1.31-4.05,1.96-9.48,1.96-16.31v-72.87c0-5.08-.74-9.37-2.21-12.86-1.47-3.49-4.09-5.24-7.85-5.24-4.25,0-7.08,1.63-8.46,4.88-1.39,3.26-2.08,7.66-2.08,13.22v73.34c0,14.61,3.43,21.91,10.3,21.91,4.25,0,7.03-2.02,8.34-6.07Z"/>
    <path class="cls-1" d="M433.29,993.59c-5.32-4.84-8.83-11.27-10.55-19.29-1.72-8.01-2.58-18.29-2.58-30.84l.49-78.58c0-12.38,3.23-22.5,9.69-30.36,6.46-7.86,15.58-11.79,27.35-11.79s20.27,3.73,26,11.19v-40.72h42.93v205.75h-42.93v-18.57c-2.45,6.83-5.76,11.95-9.93,15.36s-9.77,5.12-16.8,5.12c-10.47,0-18.36-2.42-23.67-7.26ZM481.74,962.16c1.31-4.05,1.96-9.48,1.96-16.31v-72.87c0-5.08-.74-9.37-2.21-12.86-1.47-3.49-4.09-5.24-7.85-5.24-4.25,0-7.08,1.63-8.46,4.88-1.39,3.26-2.08,7.66-2.08,13.22v73.34c0,14.61,3.43,21.91,10.3,21.91,4.25,0,7.03-2.02,8.34-6.07Z"/>
    <path class="cls-1" d="M539.87,948.46l.25-13.81h42.93l.25,20.48c0,4.13.82,7.26,2.45,9.41,1.63,2.14,4.33,3.21,8.09,3.21,5.72,0,8.58-4.52,8.58-13.57,0-6.67-1.35-11.91-4.05-15.72-2.7-3.81-6.99-7.86-12.88-12.14l-22.81-17.15c-7.85-5.87-13.49-11.94-16.92-18.22-3.43-6.27-5.15-15.12-5.15-26.55,0-8.89,2.41-16.47,7.24-22.74,4.82-6.27,11.24-10.99,19.25-14.17,8.01-3.17,16.92-4.76,26.74-4.76,34.83,0,52.25,16.83,52.25,50.48v3.33h-44.4v-6.67c0-4.13-.7-7.66-2.08-10.6-1.39-2.94-3.72-4.41-6.99-4.41-2.94,0-5.19.83-6.75,2.5-1.56,1.67-2.33,3.93-2.33,6.79,0,6.35,2.53,11.27,7.6,14.76l26.49,18.81c9.48,6.83,16.76,14.25,21.83,22.26,5.07,8.02,7.6,18.14,7.6,30.36,0,16.19-4.75,28.66-14.23,37.39-9.49,8.73-22.73,13.1-39.74,13.1-35.49,0-53.23-17.46-53.23-52.39Z"/>
    <path class="cls-3" d="M672.57,985.73c-8.83-10.08-13.25-24.25-13.25-42.51v-97.4c0-17.62,4.42-30.92,13.25-39.89,8.83-8.97,21.75-13.45,38.76-13.45s29.92,4.49,38.75,13.45c8.83,8.97,13.25,22.27,13.25,39.89v97.4c0,18.42-4.42,32.62-13.25,42.62-8.83,10-21.75,15-38.75,15s-29.93-5.04-38.76-15.12ZM718.93,958.47c1.31-3.17,1.96-7.62,1.96-13.33v-100.01c0-4.44-.61-8.06-1.84-10.83-1.23-2.78-3.72-4.17-7.48-4.17-7.03,0-10.55,5.16-10.55,15.48v99.78c0,5.88.74,10.32,2.21,13.33,1.47,3.02,4.17,4.52,8.09,4.52s6.29-1.58,7.6-4.76Z"/>
    <path class="cls-3" d="M783.44,863.93h-7.6l.25-31.67h7.36v-11.91c0-18.73,9.65-28.1,28.94-28.1,9.16,0,16.51,1.11,22.08,3.33v25.72c-1.64-.48-2.94-.71-3.92-.71-2.29,0-3.76.8-4.42,2.38-.66,1.59-.98,3.97-.98,7.14v2.14h9.32v32.15h-8.34v134.54h-42.68v-135.02ZM852.12,863.93h-7.6l.25-31.67h7.36v-11.91c0-18.73,9.65-28.1,28.94-28.1,9.16,0,16.51,1.11,22.08,3.33v25.72c-1.64-.48-2.94-.71-3.92-.71-2.29,0-3.76.8-4.42,2.38-.66,1.59-.98,3.97-.98,7.14v2.14h9.32v32.15h-8.34v134.54h-42.68v-135.02Z"/>
  </g>
</svg>