<?xml version="1.0" encoding="UTF-8"?>
<svg id="Layer_1" data-name="Layer 1" xmlns="http://www.w3.org/2000/svg" viewBox="0 0 512 512">
  <defs>
    <style>
      .cls-1 {
        fill: #0b1537;
      }

      .cls-2 {
        fill: #76bfbb;
      }

      .cls-3 {
        fill: #165dfc;
      }
    </style>
  </defs>
  <path class="cls-1" d="M241.15,50.83v139.51l-49.11,29.68-32.93,19.91v-116.59l-56.44,34.11v197.07l15.58,9.41,40.86,24.7v-52.9l21.93-13.26,10.99-6.64,49.11-29.68v175c0,27.01-24.88,45.27-49.11,40.41-3.7-.74-7.4-2.03-10.99-3.91-.77-.41-1.54-.84-2.31-1.3l-68.73-41.55-10.99-6.64-58.51-35.38c-12.33-7.44-19.86-20.79-19.86-35.2v-243.19c0-14.41,7.54-27.76,19.86-35.2L178.75,15.64c27.41-16.57,62.4,3.17,62.4,35.19Z"/>
  <path class="cls-3" d="M491.35,134.41v243.19c0,14.41-7.53,27.76-19.85,35.2l-58.95,35.64-10.99,6.64-68.29,41.28c-.91.55-1.83,1.06-2.75,1.53-3.6,1.84-7.29,3.08-10.99,3.76-24.1,4.56-48.67-13.65-48.67-40.49v-174.74l48.67,29.42,10.99,6.64,22.36,13.52v52.63l40.56-24.52,15.87-9.6v-197.07l-56.44-34.11v116.84l-33.36-20.17-48.67-29.43V50.83c0-32.02,35.01-51.76,62.41-35.19l138.23,83.57c12.33,7.44,19.85,20.79,19.85,35.2Z"/>
  <path class="cls-2" d="M352.88,292.84v20.25l-22.36-13.52-59.67-36.06-15.06-9.11-14.63,8.85-60.1,36.32-21.93,13.26v-20.25c0-8.43,4.41-16.25,11.63-20.62l10.31-6.23,4.71-2.84,6.29-3.8,30-18.14,19.1-11.55,14.63-8.84,15.06,9.11,18.67,11.28,30,18.14,6.29,3.8,4.71,2.84,10.74,6.5c7.21,4.36,11.62,12.18,11.62,20.61Z"/>
</svg>